<?xml version="1.0" encoding="utf-8" ?>
<svg xmlns="http://www.w3.org/2000/svg" xmlns:xlink="http://www.w3.org/1999/xlink" width="512" height="512" viewport="0 0 30 30">
	<path fill="#E899DC" transform="scale(0.8 0.8)" d="M468.61 503.794C432.326 525.273 389.651 538.439 347.372 540.245L317.978 540.09C202.08 532.437 104.103 445.985 88.8538 329.221L87.268 315.293C81.1174 211.537 143.084 116.433 241.824 81.3664C255.71 76.4349 269.772 72.5889 284.544 71.6932C295.672 71.3573 302.79 84.2896 296.903 93.8239C293.353 99.5732 286.591 103.648 281.886 108.523C247.639 144.001 227.5 183.493 227.511 233.069C227.512 239.025 227.237 245.292 228.256 251.173L231.356 269.924C249.828 357.141 329.809 418.719 418.012 418.99C464.461 419.133 508.805 402.909 544.387 372.839C547.52 370.192 550.144 366.904 553.623 364.678C564.667 357.61 577.321 368.5 574.325 380.397C573.313 384.414 570.985 387.925 568.939 391.476L565.356 398.431C543.631 441.746 509.934 478.556 468.61 503.794ZM443.71 499.653C466.384 488.513 486.589 473.99 504.763 456.49C501.131 457.823 497.565 460.286 494.151 462.148C404.506 511.057 284.142 484.112 218.7 407.067C142.686 317.576 148.178 177.584 242.032 102.595C244.669 100.488 247.567 98.5654 250.111 96.3717L250.582 95.9596L250.936 95.6996L250.582 95.9596C246.349 95.8713 225.754 104.915 221.734 106.855C171.309 131.188 132.029 178.162 113.74 230.693C88.8037 302.317 106.28 383.712 154.13 441.66C224.858 527.314 346.051 547.024 443.71 499.653ZM523.666 422.748C536.082 411.39 545.685 399.646 553.828 385.013C548.369 389.321 543.336 394.008 537.59 397.969C498.518 424.907 450.055 437.955 402.783 434.217L393.687 433.071C295.891 420.804 218.497 343.619 212.014 243.88C208.95 196.729 226.35 146.364 258.538 111.543C260.058 109.9 261.785 108.453 263.253 106.772L263.422 106.574L263.748 106.298L263.422 106.574C261.628 107.201 259.784 108.85 258.245 110.015C209.473 146.949 181.496 204.539 181.597 265.312C181.755 360.446 248.622 441.721 339.922 464.272C359.285 469.055 395.263 473.33 415.704 469.851C423.519 468.521 431.304 467.766 439.089 466.059C471.431 458.967 498.97 444.46 523.666 422.748Z"/>
	<path fill="#E899DC" transform="scale(0.8 0.8)" d="M290.49 261.133C278.257 258.96 280.017 240.118 273.255 232C265.954 223.235 244.873 222.398 242.353 211.434C240.428 203.059 253.745 200.178 259.375 198.101C285.943 188.299 274.886 167.91 289.656 165.072C295.45 164.827 297.911 168.968 299.619 173.822C306.11 192.273 304.221 192.922 323.438 199.998C334.714 204.151 345.954 211.023 329.479 219.385C323.272 222.535 313.076 225.237 307.839 229.042C298.755 235.642 303.134 259.447 290.49 261.133ZM289.239 193.47C287.487 196.944 285.75 200.681 282.903 203.413C279.49 206.689 274.363 207.872 271.201 211.051C278.228 215.032 284.181 218.717 287.905 226.044C288.309 226.841 288.612 228.51 289.581 228.354L289.835 227.727C294.263 218.889 299.957 215.201 308.951 211.584C299.53 207.257 294.773 201.893 289.239 193.47Z"/>
	<path fill="#E899DC" transform="scale(0.8 0.8)" d="M421.503 384.311C405.369 384.828 399.847 372.222 393.907 359.582C376.674 322.912 372.793 314.941 335.896 296.72C326.59 292.124 315.255 287.493 314.11 275.564C312.724 261.117 322.775 255.326 334.246 250.145C370.388 233.821 374.959 227.64 391.656 193.507C398.081 180.373 402.741 166.728 419.446 165.445C440.016 166.296 443.499 183.096 450.56 199.192C462.319 226.001 476.287 236.903 503.129 248.981C508.233 251.277 513.679 253.27 518.242 256.562C528.556 264.003 529.293 280.134 519.3 288.037C514.707 291.67 509.028 294.126 503.771 296.648C468.814 313.422 461.784 323.245 446.702 359.395C441.365 372.187 436.849 382.403 421.503 384.311ZM418.992 181.012C413.106 182.207 410.666 190.201 408.262 195.01L396.835 218.407C386.718 237.697 370.593 250.618 351.176 259.879C345.592 262.542 319.181 269.95 333.915 278.5C341.334 282.805 349.527 285.758 357.031 290.01C377.566 301.646 388.249 312.832 398.712 333.313L411.704 360.246C414.494 365.927 415.316 368.353 421.819 368.373C428.653 366.773 432.444 353.367 434.883 347.673C449.207 314.245 459.115 300.552 493.195 284.046C497.643 281.892 519.088 275.487 507.896 268.717C504.242 266.506 500.15 264.784 496.295 262.938C472.595 251.591 455.044 242.061 441.935 217.472C437.462 209.083 429.988 187.061 423.307 181.406C421.85 181.169 420.475 180.908 418.992 181.012Z"/>
</svg>
